<svg width="24" height="24" viewBox="0 0 24 24" fill="none" xmlns="http://www.w3.org/2000/svg">
<path d="M12 5C10.6155 5 9.26215 5.41055 8.111 6.17972C6.95986 6.94889 6.06266 8.04214 5.53284 9.32122C5.00303 10.6003 4.86441 12.0078 5.13451 13.3656C5.40461 14.7235 6.07129 15.9708 7.05026 16.9498C8.02923 17.9287 9.27651 18.5954 10.6344 18.8655C11.9922 19.1356 13.3997 18.997 14.6788 18.4672C15.9579 17.9373 17.0511 17.0401 17.8203 15.889C18.5895 14.7378 19 13.3845 19 12C18.9999 10.1435 18.2624 8.36305 16.9497 7.05031C15.6369 5.73757 13.8565 5.00005 12 5ZM15.2011 10.1033L15.2007 10.3427C15.2048 10.3715 15.2021 10.4007 15.1929 10.4282C15.1837 10.4557 15.1682 10.4807 15.1477 10.5012C15.1272 10.5217 15.1022 10.5371 15.0747 10.5463C15.0472 10.5556 15.018 10.5582 14.9893 10.5542H14.255C14.2383 10.5529 14.2214 10.5552 14.2056 10.5609C14.1897 10.5666 14.1753 10.5756 14.1633 10.5874C14.141 10.6158 14.1302 10.6515 14.1329 10.6875V16.3827C14.137 16.4114 14.1344 16.4407 14.1252 16.4683C14.116 16.4958 14.1006 16.5208 14.08 16.5413C14.0595 16.5619 14.0345 16.5773 14.007 16.5865C13.9794 16.5957 13.9501 16.5983 13.9214 16.5942H13.332C13.3033 16.5983 13.274 16.5957 13.2465 16.5865C13.2189 16.5773 13.1939 16.5618 13.1734 16.5413C13.1529 16.5208 13.1374 16.4958 13.1282 16.4683C13.1191 16.4407 13.1164 16.4114 13.1205 16.3827V14.3248H13.0766C12.9874 14.4803 12.8508 14.6031 12.6868 14.6752C12.4861 14.7588 12.2699 14.7986 12.0527 14.7918H11.7302C11.4951 14.7951 11.2612 14.757 11.0393 14.679C10.8376 14.6065 10.6539 14.4913 10.5008 14.3412C10.3473 14.1917 10.2291 14.01 10.1546 13.8091C10.0747 13.5857 10.0355 13.3497 10.0391 13.1125V10.6875C10.0411 10.6541 10.0323 10.6209 10.014 10.593C10.005 10.5815 9.99366 10.572 9.98071 10.5654C9.96776 10.5587 9.95351 10.5549 9.93895 10.5542H9.29371C9.26487 10.5564 9.23591 10.5525 9.20864 10.5429C9.18137 10.5333 9.15639 10.5181 9.13528 10.4984C9.09658 10.4518 9.07755 10.392 9.08223 10.3316V9.8643C9.08011 9.83702 9.08374 9.80961 9.09288 9.78382C9.10201 9.75803 9.11646 9.73445 9.13528 9.71459C9.17958 9.67795 9.23638 9.65994 9.29371 9.66434H12.5706C12.3336 9.41761 12.1041 9.15635 11.882 8.88055C11.6601 8.60417 11.4462 8.31301 11.2403 8.00708L10.6177 7.0837C10.6034 7.05844 10.5922 7.03147 10.5846 7.00344C10.577 6.97532 10.5732 6.94635 10.5731 6.91724C10.5698 6.89459 10.5719 6.87148 10.5791 6.84977C10.5864 6.82806 10.5986 6.80833 10.6148 6.79214C10.6309 6.77596 10.6507 6.76376 10.6724 6.75652C10.6941 6.74928 10.7172 6.7472 10.7399 6.75044H11.4183C11.4785 6.74891 11.5381 6.76323 11.591 6.79196C11.641 6.82185 11.6815 6.86529 11.7079 6.91724L13.2985 9.47555C13.3327 9.5317 13.3784 9.57999 13.4325 9.61723C13.4786 9.64799 13.5328 9.66439 13.5882 9.66434H14.9896C15.047 9.65977 15.1038 9.67781 15.1481 9.71459C15.1668 9.73447 15.1813 9.75806 15.1904 9.78384C15.1995 9.80962 15.2032 9.83703 15.2011 9.8643L15.2011 10.1033Z" fill="#E2E2E2"/>
<path d="M12.9984 10.5539H11.174C11.1572 10.5525 11.1402 10.5547 11.1243 10.5605C11.1084 10.5662 11.094 10.5752 11.0819 10.587C11.0596 10.6155 11.0488 10.6512 11.0515 10.6872V13.012C11.0333 13.2483 11.1093 13.4821 11.263 13.6625C11.3484 13.7399 11.4486 13.7991 11.5577 13.8364C11.6667 13.8737 11.7822 13.8884 11.8971 13.8796H12.1972C12.3353 13.8823 12.4729 13.8621 12.6044 13.8199C12.7134 13.7843 12.8121 13.7228 12.892 13.6405C12.9686 13.5599 13.0271 13.4637 13.0633 13.3585C13.103 13.2398 13.1224 13.1152 13.1206 12.99V10.6875C13.1234 10.6515 13.1124 10.6157 13.0899 10.5874C13.078 10.5755 13.0636 10.5663 13.0478 10.5606C13.032 10.5548 13.0152 10.5525 12.9984 10.5539Z" fill="#E2E2E2"/>
</svg>
