<svg width="24" height="24" viewBox="0 0 24 24" fill="none" xmlns="http://www.w3.org/2000/svg">
<path d="M16.6809 7.43103C17.3378 7.43103 17.9761 7.5614 18.5771 7.81682C19.1596 8.06427 19.6809 8.41814 20.133 8.86779C20.5824 9.31744 20.9362 9.84159 21.1835 10.4243C21.4388 11.0256 21.5691 11.6642 21.5691 12.3213C21.5691 12.9785 21.4388 13.6171 21.1835 14.2184C20.9362 14.8011 20.5824 15.3226 20.133 15.7749C19.6835 16.2245 19.1596 16.5784 18.5771 16.8258C17.9761 17.0813 17.3378 17.2116 16.6809 17.2116H7.31915C6.66223 17.2116 6.02394 17.0813 5.42287 16.8258C4.84043 16.5784 4.31915 16.2245 3.86702 15.7749C3.41755 15.3252 3.06383 14.8011 2.81649 14.2184C2.56117 13.6171 2.43085 12.9785 2.43085 12.3213C2.43085 11.6642 2.56117 11.0256 2.81649 10.4243C3.06383 9.84159 3.41755 9.3201 3.86702 8.86779C4.31649 8.41814 4.84043 8.06427 5.42287 7.81682C6.02394 7.5614 6.66223 7.43103 7.31915 7.43103H16.6809ZM16.6809 7H7.31915C4.39362 7 2 9.3946 2 12.3213C2 15.2481 4.39362 17.6427 7.31915 17.6427H16.6809C19.6064 17.6427 22 15.2481 22 12.3213C22 9.3946 19.6064 7 16.6809 7Z" fill="#E2E2E2"/>
<path d="M11.5299 14.3128H11.0196V10.3425H12.3723C12.7151 10.3425 13.0075 10.4568 13.2466 10.6853C13.4911 10.9139 13.6134 11.1929 13.6134 11.5224C13.6134 11.8599 13.4911 12.139 13.2466 12.3649C13.0101 12.5908 12.7178 12.7024 12.3723 12.7024H11.5299V14.3128ZM11.5299 10.8315V12.2161H12.3829C12.5849 12.2161 12.755 12.147 12.8879 12.0114C13.0234 11.8759 13.0925 11.7111 13.0925 11.5251C13.0925 11.3417 13.0234 11.1796 12.8879 11.0441C12.755 10.9032 12.5876 10.8341 12.3829 10.8341H11.5299V10.8315Z" fill="#E2E2E2"/>
<path d="M14.9474 11.5065C15.3248 11.5065 15.6225 11.6075 15.8404 11.8095C16.0583 12.0114 16.1672 12.2878 16.1672 12.6386V14.3128H15.6809V13.9355H15.6597C15.4497 14.2464 15.168 14.4005 14.8172 14.4005C14.5169 14.4005 14.2671 14.3128 14.0651 14.1348C13.8632 13.9567 13.7622 13.7362 13.7622 13.4704C13.7622 13.1887 13.8685 12.9655 14.0811 12.8007C14.2937 12.6333 14.578 12.5509 14.9315 12.5509C15.2345 12.5509 15.4843 12.6067 15.6783 12.7183V12.6014C15.6783 12.4233 15.6092 12.2745 15.4683 12.1496C15.3275 12.0247 15.1627 11.9636 14.974 11.9636C14.6897 11.9636 14.4638 12.0832 14.299 12.325L13.8499 12.0433C14.097 11.6845 14.4638 11.5065 14.9474 11.5065ZM14.2884 13.4784C14.2884 13.6113 14.3442 13.7229 14.4585 13.8106C14.5701 13.8983 14.7029 13.9434 14.8544 13.9434C15.0697 13.9434 15.261 13.8637 15.4285 13.7043C15.5959 13.5448 15.6809 13.3588 15.6809 13.1435C15.5215 13.0186 15.3009 12.9548 15.0165 12.9548C14.8092 12.9548 14.6365 13.0053 14.4983 13.1037C14.3575 13.2073 14.2884 13.3322 14.2884 13.4784Z" fill="#E2E2E2"/>
<path d="M18.9417 11.5942L17.2409 15.5061H16.7147L17.3472 14.1374L16.2257 11.5942H16.7811L17.589 13.5448H17.5997L18.3863 11.5942H18.9417Z" fill="#E2E2E2"/>
<path d="M9.50034 12.3808C9.50034 12.2144 9.48546 12.0552 9.45782 11.9021H7.31905V12.7791L8.55081 12.7794C8.50085 13.0712 8.34007 13.3199 8.09371 13.4857V14.0547H8.82692C9.25505 13.6585 9.50034 13.0728 9.50034 12.3808Z" fill="#999999"/>
<path d="M8.09398 13.4858C7.88988 13.6235 7.62705 13.704 7.31957 13.704C6.72562 13.704 6.22175 13.3038 6.0413 12.7643H5.28497V13.3511C5.65968 14.0946 6.42983 14.6049 7.31957 14.6049C7.93452 14.6049 8.45115 14.4026 8.82719 14.0545L8.09398 13.4858Z" fill="#E2E2E2"/>
<path d="M5.97004 12.329C5.97004 12.1775 5.99529 12.0311 6.04126 11.8934V11.3066H5.28493C5.13 11.6141 5.04283 11.9612 5.04283 12.329C5.04283 12.6968 5.13026 13.0438 5.28493 13.3513L6.04126 12.7645C5.99529 12.6269 5.97004 12.4804 5.97004 12.329Z" fill="#999999"/>
<path d="M7.31957 10.9536C7.65522 10.9536 7.95578 11.0692 8.1931 11.2951L8.84287 10.6459C8.44822 10.2784 7.93373 10.0527 7.31957 10.0527C6.4301 10.0527 5.65968 10.563 5.28497 11.3066L6.0413 11.8933C6.22175 11.3539 6.72562 10.9536 7.31957 10.9536Z" fill="#E2E2E2"/>
</svg>
