<svg width="24" height="24" viewBox="0 0 24 24" fill="none" xmlns="http://www.w3.org/2000/svg">
<path fill-rule="evenodd" clip-rule="evenodd" d="M17.3591 10.4486L18.2214 7.97049C18.4042 7.44769 18.5842 6.92488 18.7706 6.40279C18.8446 6.19438 18.8993 6.16095 19.1192 6.15953H19.4806C19.5538 6.15953 19.6264 6.15739 19.6997 6.16095C19.8035 6.16664 19.8448 6.21572 19.8284 6.31744C19.8199 6.37149 19.8035 6.42413 19.7836 6.47534C19.0004 8.46911 18.2164 10.4629 17.431 12.4559C17.3207 12.7355 17.177 12.9979 16.9785 13.2263C16.7238 13.5193 16.3973 13.6587 16.016 13.6815C15.767 13.6964 15.5194 13.6851 15.2775 13.6161C15.1225 13.5727 15.0648 13.5037 15.0591 13.3443C15.0556 13.2348 15.0549 13.1245 15.0591 13.015C15.0634 12.8792 15.1175 12.8272 15.2526 12.8443C15.4269 12.8656 15.5998 12.8848 15.7762 12.8727C16.0622 12.8521 16.2849 12.7305 16.435 12.4815C16.6178 12.1792 16.7082 11.8385 16.8391 11.5149C16.8576 11.4679 16.8334 11.4295 16.8177 11.3904L14.8535 6.5479C14.8237 6.47392 14.7952 6.39852 14.7788 6.32028C14.7589 6.2207 14.8052 6.1638 14.9069 6.16166C15.1445 6.15882 15.3821 6.16024 15.6197 6.16237C15.7641 6.1638 15.8296 6.26195 15.873 6.38216C15.9897 6.70438 16.1078 7.02589 16.2237 7.3481L17.3072 10.3498C17.32 10.3832 17.3236 10.4223 17.3584 10.4494" fill="#E2E2E2"/>
<path fill-rule="evenodd" clip-rule="evenodd" d="M10.4933 18.0524C8.29504 17.8817 6.2789 17.1868 4.44844 15.9584C3.97179 15.6383 3.52218 15.2812 3.0932 14.8999C3.07186 14.8807 3.05051 14.8594 3.03415 14.8359C2.99716 14.7804 2.98435 14.7207 3.02561 14.6617C3.06901 14.5976 3.13517 14.5884 3.20133 14.609C3.25611 14.6268 3.30733 14.6574 3.35784 14.6873C4.74652 15.4782 6.2227 16.0451 7.77784 16.4107C8.80014 16.6504 9.83667 16.7948 10.8867 16.8439C13.3603 16.9599 15.735 16.521 18.0222 15.5842C18.0862 15.5579 18.1481 15.5273 18.2199 15.5245C18.3359 15.5209 18.4412 15.5778 18.4824 15.6696C18.5251 15.7642 18.5031 15.8744 18.4021 15.9534C18.2584 16.0651 18.1082 16.1703 17.9546 16.2692C16.8569 16.9762 15.6567 17.4386 14.3904 17.7394C13.6505 17.9151 12.9 18.0275 12.1395 18.0695C12.1189 18.0702 11.2076 18.0851 11.1428 18.0787C11.1072 18.0787 10.5844 18.0595 10.4933 18.0524Z" fill="#E2E2E2"/>
<path fill-rule="evenodd" clip-rule="evenodd" d="M18.2576 14.9284C17.8408 14.9284 17.4274 14.9817 17.0127 15.0237C16.9437 15.0308 16.8547 15.0593 16.8234 14.9654C16.7943 14.8772 16.8633 14.8224 16.9259 14.7783C17.2048 14.5813 17.5156 14.4575 17.845 14.38C18.4433 14.2399 19.0445 14.2185 19.6463 14.3615C19.657 14.3636 19.6677 14.3651 19.6783 14.3686C19.9359 14.444 19.997 14.5201 19.9999 14.789C20.0027 15.0827 19.9501 15.3701 19.8711 15.6525C19.7167 16.2038 19.4798 16.7123 19.0857 17.1377C19.0167 17.2124 18.9406 17.2814 18.8623 17.3468C18.8076 17.393 18.7357 17.4251 18.6717 17.3767C18.6077 17.3283 18.6397 17.2565 18.6639 17.1953C18.831 16.7714 18.9982 16.3474 19.1135 15.905C19.1654 15.7073 19.2116 15.5074 19.1974 15.3004C19.1846 15.119 19.1305 15.0515 18.9534 14.9953C18.7258 14.9227 18.4917 14.9291 18.2576 14.9284Z" fill="#E2E2E2"/>
<path fill-rule="evenodd" clip-rule="evenodd" d="M7.88313 9.82484C7.68536 10.4294 7.24286 10.7111 6.59619 10.7061C6.10247 10.7026 5.67206 10.5233 5.27652 10.2417C5.23099 10.2089 5.23383 10.1712 5.23383 10.1279V8.76928C5.23383 8.31333 5.23526 7.85668 5.2317 7.40003C5.2317 7.33317 5.25304 7.29547 5.30711 7.25919C5.72115 6.98179 6.17076 6.82388 6.67444 6.83739C7.27843 6.85375 7.68394 7.12262 7.87602 7.69522C8.11221 8.39869 8.11434 9.11995 7.88313 9.82484ZM8.87057 7.39861C8.6294 6.70652 8.16343 6.22639 7.42996 6.05995C6.83664 5.9248 6.26965 6.02296 5.73182 6.30605C5.5312 6.41204 5.34908 6.54292 5.16269 6.69727C5.14135 6.57137 5.12499 6.46041 5.10294 6.35087C5.07732 6.2207 5.00974 6.1638 4.87599 6.16095C4.72873 6.15811 4.5836 6.15882 4.43705 6.16024C4.26632 6.16095 4.20442 6.21999 4.20442 6.38999V13.3294C4.20442 13.5044 4.26632 13.5641 4.44346 13.5663C4.61562 13.5684 4.78778 13.567 4.95923 13.5663C5.18546 13.5663 5.23383 13.5165 5.23383 13.2881V10.9437C5.25233 10.9501 5.25945 10.9508 5.26514 10.9544C5.2879 10.9722 5.31138 10.9899 5.33343 11.0084C5.90256 11.4708 6.55564 11.6273 7.26563 11.4964C8.06241 11.3499 8.57391 10.8399 8.84852 10.1022C9.18074 9.20815 9.18359 8.29769 8.87057 7.39861ZM13.0309 10.3178C12.6496 10.5788 12.237 10.7474 11.7717 10.7787C11.6579 10.7865 11.5455 10.7794 11.4345 10.7559C11.0859 10.6812 10.8739 10.4309 10.8511 10.0717C10.8134 9.49124 11.1016 9.1484 11.6856 9.07869C12.148 9.02321 12.6033 9.08367 13.0551 9.17827C13.1106 9.18894 13.1255 9.21241 13.1241 9.26505C13.1213 9.41798 13.1234 9.57091 13.1234 9.72455C13.1234 9.86325 13.117 10.002 13.1255 10.1407C13.1305 10.226 13.0971 10.2722 13.0302 10.3185L13.0309 10.3178ZM14.0788 7.34099C14.0127 6.68873 13.6235 6.24488 12.9847 6.09267C12.5151 5.9817 12.042 5.98811 11.569 6.03932C11.1684 6.08271 10.7757 6.16237 10.4008 6.31601C10.2073 6.39497 10.1717 6.44689 10.1703 6.65175V6.87082C10.1703 7.09631 10.2301 7.13756 10.4435 7.07283C11.0418 6.89287 11.6501 6.7876 12.2789 6.83811C12.8232 6.88149 13.0757 7.13329 13.1134 7.67459C13.1298 7.91216 13.1205 8.14974 13.1234 8.38731C13.1241 8.52886 13.1234 8.52672 12.984 8.49614C12.4177 8.37166 11.8471 8.29555 11.2673 8.39869C10.854 8.47195 10.4862 8.63911 10.2002 8.95564C9.85516 9.33974 9.76908 9.79781 9.84022 10.2929C9.92417 10.8833 10.2493 11.2866 10.8191 11.4658C11.4416 11.6614 12.0378 11.5483 12.609 11.2581C12.804 11.1592 12.9818 11.0333 13.1632 10.8861C13.1831 11.0148 13.1988 11.1201 13.2173 11.224C13.2429 11.3691 13.3069 11.4217 13.457 11.4231C13.5815 11.4253 13.706 11.4245 13.8298 11.4238C14.0525 11.4238 14.098 11.3783 14.098 11.1535V7.76777C14.098 7.62551 14.093 7.48325 14.0788 7.34099Z" fill="#E2E2E2"/>
</svg>
