<svg width="24" height="24" viewBox="0 0 24 24" fill="none" xmlns="http://www.w3.org/2000/svg">
<path d="M18.9494 11.3826C18.8132 10.9945 18.4421 10.7158 18.0063 10.7158H17.9972C17.7139 10.7158 17.4585 10.8333 17.2768 11.0221C17.0947 10.8333 16.8394 10.7158 16.5564 10.7158H16.5473C16.2982 10.7158 16.0705 10.8067 15.8957 10.9572V10.8807C15.8897 10.8045 15.8268 10.7446 15.7492 10.7446H15.0806C14.9989 10.7446 14.9329 10.8104 14.9329 10.8923V14.5119C14.9329 14.5937 14.9989 14.6596 15.0806 14.6596H15.7492C15.8237 14.6596 15.885 14.6041 15.8948 14.5323L15.8945 11.9338C15.8945 11.9247 15.8948 11.9162 15.8957 11.9078C15.9064 11.7918 15.9916 11.6965 16.1262 11.6846H16.151H16.2212H16.2495C16.3058 11.6896 16.3532 11.7093 16.3907 11.7391C16.4488 11.7852 16.4812 11.856 16.4812 11.9338L16.4837 14.5194C16.4837 14.6013 16.5501 14.6674 16.6315 14.6674H17.3001C17.379 14.6674 17.4431 14.6047 17.4469 14.5266L17.4466 11.9304C17.4463 11.8451 17.4859 11.7679 17.5554 11.7222C17.5897 11.7002 17.6309 11.6855 17.6783 11.6811H17.7032H17.7733H17.8016C17.9463 11.6936 18.0337 11.8031 18.0334 11.9304L18.0359 14.5125C18.0359 14.5944 18.1022 14.6602 18.1837 14.6602H18.8522C18.9336 14.6602 19 14.5944 19 14.5125V11.7353C19 11.546 18.9786 11.4654 18.9494 11.3826Z" fill="#E2E2E2"/>
<path d="M14.4236 10.754H14.0412V10.1364C14.0412 10.1358 14.0412 10.1351 14.0412 10.1345C14.0412 10.0602 13.9808 10 13.9063 10C13.8975 10 13.889 10.0013 13.8808 10.0028C13.457 10.1188 13.5419 10.7042 12.768 10.754H12.7507H12.6928C12.6815 10.754 12.6708 10.7556 12.6604 10.7578H12.6598L12.6604 10.7581C12.5944 10.7728 12.5447 10.8312 12.5447 10.9014V11.5679C12.5447 11.6491 12.6111 11.7153 12.6928 11.7153H13.0963L13.0957 14.5417C13.0957 14.6223 13.1611 14.6875 13.2419 14.6875H13.9029C13.9834 14.6875 14.0488 14.6223 14.0488 14.5417L14.0491 11.7153H14.4236C14.505 11.7153 14.5714 11.6491 14.5714 11.5679V10.9014C14.5714 10.8202 14.505 10.754 14.4236 10.754Z" fill="#E2E2E2"/>
<path d="M12.0183 10.754H11.3497C11.2683 10.754 11.2023 10.8202 11.2023 10.9014V12.2796C11.2007 12.3649 11.1315 12.4332 11.0457 12.4332H10.7658C10.679 12.4332 10.6089 12.3636 10.6089 12.2771L10.6064 10.9014C10.6064 10.8202 10.54 10.754 10.4586 10.754H9.79004C9.70829 10.754 9.64225 10.8202 9.64225 10.9014V12.4119C9.64225 12.9857 10.0526 13.3948 10.6284 13.3948C10.6284 13.3948 11.0604 13.3948 11.0736 13.3973C11.1516 13.4061 11.2123 13.4713 11.2123 13.5516C11.2123 13.6309 11.1529 13.6958 11.0758 13.7055C11.0721 13.7062 11.0686 13.7071 11.0645 13.7077L10.0869 13.7112C10.0051 13.7112 9.93909 13.7773 9.93909 13.8585V14.5248C9.93909 14.6063 10.0051 14.6721 10.0869 14.6721H11.1799C11.756 14.6721 12.166 14.2633 12.166 13.6892V10.9014C12.166 10.8202 12.1 10.754 12.0183 10.754Z" fill="#999999"/>
<path d="M5.54742 11.9753V12.2863V12.3867C5.54742 12.4729 5.4773 12.5431 5.39083 12.5431L4.96663 12.5434V11.7192H5.39083C5.4773 11.7192 5.54742 11.7888 5.54742 11.8753V11.9753ZM5.60623 10.7538H4.14496C4.06478 10.7538 4 10.8187 4 10.8984V11.5514C4 11.5527 4.00031 11.554 4.00031 11.5552C4.00031 11.5583 4 11.5615 4 11.5643V13.659V14.5202C4 14.6005 4.06037 14.666 4.13521 14.6679H4.14779H4.81632C4.89776 14.6679 4.96411 14.602 4.96411 14.5205L4.96663 13.5075H5.60623C6.14142 13.5075 6.51437 13.1373 6.51437 12.6014V11.6612C6.51437 11.1254 6.14142 10.7538 5.60623 10.7538" fill="#999999"/>
<path d="M8.32126 13.5402V13.6443C8.32126 13.6528 8.32 13.6609 8.31875 13.6688C8.31717 13.6763 8.31497 13.6835 8.31246 13.6904C8.2917 13.7487 8.23322 13.7911 8.16372 13.7911H7.88543C7.79864 13.7911 7.72789 13.7252 7.72789 13.6443V13.5186C7.72789 13.517 7.72757 13.5155 7.72757 13.5139L7.72789 13.1794V13.1787V13.1417V13.0746L7.7282 13.0737C7.72852 12.9931 7.79864 12.9279 7.88543 12.9279H8.16372C8.25082 12.9279 8.32126 12.9934 8.32126 13.0746V13.5402ZM8.21498 10.7577H7.28734C7.20527 10.7577 7.13892 10.8198 7.13892 10.896V11.1553C7.13892 11.1568 7.13923 11.1587 7.13923 11.1603C7.13923 11.1622 7.13892 11.164 7.13892 11.1659V11.5211C7.13892 11.6017 7.20936 11.6676 7.29615 11.6676H8.17944C8.24925 11.6785 8.3046 11.7293 8.31246 11.8086V11.8945C8.3046 11.9701 8.24988 12.0253 8.18322 12.0316H7.74581C7.16408 12.0316 6.74963 12.4169 6.74963 12.958V13.7133V13.733C6.74963 14.2711 7.1059 14.6539 7.68355 14.6539H8.89577C9.11337 14.6539 9.28978 14.4896 9.28978 14.2874V11.7582C9.28978 11.1449 8.97281 10.7577 8.21498 10.7577" fill="#999999"/>
</svg>
